{
	"patcher" : 	{
		"fileversion" : 1,
		"appversion" : 		{
			"major" : 8,
			"minor" : 2,
			"revision" : 2,
			"architecture" : "x64",
			"modernui" : 1
		}
,
		"classnamespace" : "box",
		"rect" : [ 159.0, 100.0, 1555.0, 927.0 ],
		"bglocked" : 0,
		"openinpresentation" : 0,
		"default_fontsize" : 12.0,
		"default_fontface" : 0,
		"default_fontname" : "Arial",
		"gridonopen" : 1,
		"gridsize" : [ 15.0, 15.0 ],
		"gridsnaponopen" : 1,
		"objectsnaponopen" : 1,
		"statusbarvisible" : 2,
		"toolbarvisible" : 1,
		"lefttoolbarpinned" : 0,
		"toptoolbarpinned" : 0,
		"righttoolbarpinned" : 0,
		"bottomtoolbarpinned" : 0,
		"toolbars_unpinned_last_save" : 0,
		"tallnewobj" : 0,
		"boxanimatetime" : 200,
		"enablehscroll" : 1,
		"enablevscroll" : 1,
		"devicewidth" : 0.0,
		"description" : "",
		"digest" : "",
		"tags" : "",
		"style" : "",
		"subpatcher_template" : "",
		"assistshowspatchername" : 0,
		"boxes" : [ 			{
				"box" : 				{
					"format" : 6,
					"id" : "obj-1364",
					"maxclass" : "flonum",
					"numinlets" : 1,
					"numoutlets" : 2,
					"outlettype" : [ "", "bang" ],
					"parameter_enable" : 0,
					"patching_rect" : [ 1210.0, 918.0, 50.0, 22.0 ]
				}

			}
, 			{
				"box" : 				{
					"id" : "obj-1365",
					"maxclass" : "newobj",
					"numinlets" : 2,
					"numoutlets" : 2,
					"outlettype" : [ "", "" ],
					"patching_rect" : [ 1210.0, 892.0, 153.0, 22.0 ],
					"text" : "zl.slice 1 @zlmaxsize 1000"
				}

			}
, 			{
				"box" : 				{
					"format" : 6,
					"id" : "obj-1366",
					"maxclass" : "flonum",
					"numinlets" : 1,
					"numoutlets" : 2,
					"outlettype" : [ "", "bang" ],
					"parameter_enable" : 0,
					"patching_rect" : [ 1049.0, 918.0, 50.0, 22.0 ]
				}

			}
, 			{
				"box" : 				{
					"id" : "obj-1367",
					"maxclass" : "newobj",
					"numinlets" : 2,
					"numoutlets" : 2,
					"outlettype" : [ "", "" ],
					"patching_rect" : [ 1049.0, 892.0, 153.0, 22.0 ],
					"text" : "zl.slice 1 @zlmaxsize 1000"
				}

			}
, 			{
				"box" : 				{
					"format" : 6,
					"id" : "obj-1368",
					"maxclass" : "flonum",
					"numinlets" : 1,
					"numoutlets" : 2,
					"outlettype" : [ "", "bang" ],
					"parameter_enable" : 0,
					"patching_rect" : [ 889.0, 918.0, 50.0, 22.0 ]
				}

			}
, 			{
				"box" : 				{
					"id" : "obj-1369",
					"maxclass" : "newobj",
					"numinlets" : 2,
					"numoutlets" : 2,
					"outlettype" : [ "", "" ],
					"patching_rect" : [ 889.0, 892.0, 153.0, 22.0 ],
					"text" : "zl.slice 1 @zlmaxsize 1000"
				}

			}
, 			{
				"box" : 				{
					"format" : 6,
					"id" : "obj-1370",
					"maxclass" : "flonum",
					"numinlets" : 1,
					"numoutlets" : 2,
					"outlettype" : [ "", "bang" ],
					"parameter_enable" : 0,
					"patching_rect" : [ 726.0, 918.0, 50.0, 22.0 ]
				}

			}
, 			{
				"box" : 				{
					"id" : "obj-1371",
					"maxclass" : "newobj",
					"numinlets" : 2,
					"numoutlets" : 2,
					"outlettype" : [ "", "" ],
					"patching_rect" : [ 726.0, 892.0, 153.0, 22.0 ],
					"text" : "zl.slice 1 @zlmaxsize 1000"
				}

			}
, 			{
				"box" : 				{
					"format" : 6,
					"id" : "obj-1372",
					"maxclass" : "flonum",
					"numinlets" : 1,
					"numoutlets" : 2,
					"outlettype" : [ "", "bang" ],
					"parameter_enable" : 0,
					"patching_rect" : [ 568.0, 918.0, 50.0, 22.0 ]
				}

			}
, 			{
				"box" : 				{
					"id" : "obj-1373",
					"maxclass" : "newobj",
					"numinlets" : 2,
					"numoutlets" : 2,
					"outlettype" : [ "", "" ],
					"patching_rect" : [ 568.0, 892.0, 153.0, 22.0 ],
					"text" : "zl.slice 1 @zlmaxsize 1000"
				}

			}
, 			{
				"box" : 				{
					"format" : 6,
					"id" : "obj-1374",
					"maxclass" : "flonum",
					"numinlets" : 1,
					"numoutlets" : 2,
					"outlettype" : [ "", "bang" ],
					"parameter_enable" : 0,
					"patching_rect" : [ 407.0, 918.0, 50.0, 22.0 ]
				}

			}
, 			{
				"box" : 				{
					"id" : "obj-1375",
					"maxclass" : "newobj",
					"numinlets" : 2,
					"numoutlets" : 2,
					"outlettype" : [ "", "" ],
					"patching_rect" : [ 407.0, 892.0, 153.0, 22.0 ],
					"text" : "zl.slice 1 @zlmaxsize 1000"
				}

			}
, 			{
				"box" : 				{
					"format" : 6,
					"id" : "obj-1376",
					"maxclass" : "flonum",
					"numinlets" : 1,
					"numoutlets" : 2,
					"outlettype" : [ "", "bang" ],
					"parameter_enable" : 0,
					"patching_rect" : [ 247.0, 918.0, 50.0, 22.0 ]
				}

			}
, 			{
				"box" : 				{
					"id" : "obj-1377",
					"maxclass" : "newobj",
					"numinlets" : 2,
					"numoutlets" : 2,
					"outlettype" : [ "", "" ],
					"patching_rect" : [ 247.0, 892.0, 153.0, 22.0 ],
					"text" : "zl.slice 1 @zlmaxsize 1000"
				}

			}
, 			{
				"box" : 				{
					"format" : 6,
					"id" : "obj-1378",
					"maxclass" : "flonum",
					"numinlets" : 1,
					"numoutlets" : 2,
					"outlettype" : [ "", "bang" ],
					"parameter_enable" : 0,
					"patching_rect" : [ 84.0, 918.0, 50.0, 22.0 ]
				}

			}
, 			{
				"box" : 				{
					"id" : "obj-1379",
					"maxclass" : "newobj",
					"numinlets" : 2,
					"numoutlets" : 2,
					"outlettype" : [ "", "" ],
					"patching_rect" : [ 84.0, 892.0, 153.0, 22.0 ],
					"text" : "zl.slice 1 @zlmaxsize 1000"
				}

			}
, 			{
				"box" : 				{
					"format" : 6,
					"id" : "obj-1380",
					"maxclass" : "flonum",
					"numinlets" : 1,
					"numoutlets" : 2,
					"outlettype" : [ "", "bang" ],
					"parameter_enable" : 0,
					"patching_rect" : [ 1210.0, 861.0, 50.0, 22.0 ]
				}

			}
, 			{
				"box" : 				{
					"id" : "obj-1381",
					"maxclass" : "newobj",
					"numinlets" : 2,
					"numoutlets" : 2,
					"outlettype" : [ "", "" ],
					"patching_rect" : [ 1210.0, 835.0, 153.0, 22.0 ],
					"text" : "zl.slice 1 @zlmaxsize 1000"
				}

			}
, 			{
				"box" : 				{
					"format" : 6,
					"id" : "obj-1382",
					"maxclass" : "flonum",
					"numinlets" : 1,
					"numoutlets" : 2,
					"outlettype" : [ "", "bang" ],
					"parameter_enable" : 0,
					"patching_rect" : [ 1049.0, 861.0, 50.0, 22.0 ]
				}

			}
, 			{
				"box" : 				{
					"id" : "obj-1383",
					"maxclass" : "newobj",
					"numinlets" : 2,
					"numoutlets" : 2,
					"outlettype" : [ "", "" ],
					"patching_rect" : [ 1049.0, 835.0, 153.0, 22.0 ],
					"text" : "zl.slice 1 @zlmaxsize 1000"
				}

			}
, 			{
				"box" : 				{
					"format" : 6,
					"id" : "obj-1384",
					"maxclass" : "flonum",
					"numinlets" : 1,
					"numoutlets" : 2,
					"outlettype" : [ "", "bang" ],
					"parameter_enable" : 0,
					"patching_rect" : [ 889.0, 861.0, 50.0, 22.0 ]
				}

			}
, 			{
				"box" : 				{
					"id" : "obj-1385",
					"maxclass" : "newobj",
					"numinlets" : 2,
					"numoutlets" : 2,
					"outlettype" : [ "", "" ],
					"patching_rect" : [ 889.0, 835.0, 153.0, 22.0 ],
					"text" : "zl.slice 1 @zlmaxsize 1000"
				}

			}
, 			{
				"box" : 				{
					"format" : 6,
					"id" : "obj-1386",
					"maxclass" : "flonum",
					"numinlets" : 1,
					"numoutlets" : 2,
					"outlettype" : [ "", "bang" ],
					"parameter_enable" : 0,
					"patching_rect" : [ 726.0, 861.0, 50.0, 22.0 ]
				}

			}
, 			{
				"box" : 				{
					"id" : "obj-1387",
					"maxclass" : "newobj",
					"numinlets" : 2,
					"numoutlets" : 2,
					"outlettype" : [ "", "" ],
					"patching_rect" : [ 726.0, 835.0, 153.0, 22.0 ],
					"text" : "zl.slice 1 @zlmaxsize 1000"
				}

			}
, 			{
				"box" : 				{
					"format" : 6,
					"id" : "obj-1388",
					"maxclass" : "flonum",
					"numinlets" : 1,
					"numoutlets" : 2,
					"outlettype" : [ "", "bang" ],
					"parameter_enable" : 0,
					"patching_rect" : [ 568.0, 861.0, 50.0, 22.0 ]
				}

			}
, 			{
				"box" : 				{
					"id" : "obj-1389",
					"maxclass" : "newobj",
					"numinlets" : 2,
					"numoutlets" : 2,
					"outlettype" : [ "", "" ],
					"patching_rect" : [ 568.0, 835.0, 153.0, 22.0 ],
					"text" : "zl.slice 1 @zlmaxsize 1000"
				}

			}
, 			{
				"box" : 				{
					"format" : 6,
					"id" : "obj-1390",
					"maxclass" : "flonum",
					"numinlets" : 1,
					"numoutlets" : 2,
					"outlettype" : [ "", "bang" ],
					"parameter_enable" : 0,
					"patching_rect" : [ 407.0, 861.0, 50.0, 22.0 ]
				}

			}
, 			{
				"box" : 				{
					"id" : "obj-1391",
					"maxclass" : "newobj",
					"numinlets" : 2,
					"numoutlets" : 2,
					"outlettype" : [ "", "" ],
					"patching_rect" : [ 407.0, 835.0, 153.0, 22.0 ],
					"text" : "zl.slice 1 @zlmaxsize 1000"
				}

			}
, 			{
				"box" : 				{
					"format" : 6,
					"id" : "obj-1392",
					"maxclass" : "flonum",
					"numinlets" : 1,
					"numoutlets" : 2,
					"outlettype" : [ "", "bang" ],
					"parameter_enable" : 0,
					"patching_rect" : [ 247.0, 861.0, 50.0, 22.0 ]
				}

			}
, 			{
				"box" : 				{
					"id" : "obj-1393",
					"maxclass" : "newobj",
					"numinlets" : 2,
					"numoutlets" : 2,
					"outlettype" : [ "", "" ],
					"patching_rect" : [ 247.0, 835.0, 153.0, 22.0 ],
					"text" : "zl.slice 1 @zlmaxsize 1000"
				}

			}
, 			{
				"box" : 				{
					"format" : 6,
					"id" : "obj-1394",
					"maxclass" : "flonum",
					"numinlets" : 1,
					"numoutlets" : 2,
					"outlettype" : [ "", "bang" ],
					"parameter_enable" : 0,
					"patching_rect" : [ 84.0, 861.0, 50.0, 22.0 ]
				}

			}
, 			{
				"box" : 				{
					"id" : "obj-1395",
					"maxclass" : "newobj",
					"numinlets" : 2,
					"numoutlets" : 2,
					"outlettype" : [ "", "" ],
					"patching_rect" : [ 84.0, 835.0, 153.0, 22.0 ],
					"text" : "zl.slice 1 @zlmaxsize 1000"
				}

			}
, 			{
				"box" : 				{
					"format" : 6,
					"id" : "obj-1396",
					"maxclass" : "flonum",
					"numinlets" : 1,
					"numoutlets" : 2,
					"outlettype" : [ "", "bang" ],
					"parameter_enable" : 0,
					"patching_rect" : [ 1210.0, 804.0, 50.0, 22.0 ]
				}

			}
, 			{
				"box" : 				{
					"id" : "obj-1397",
					"maxclass" : "newobj",
					"numinlets" : 2,
					"numoutlets" : 2,
					"outlettype" : [ "", "" ],
					"patching_rect" : [ 1210.0, 778.0, 153.0, 22.0 ],
					"text" : "zl.slice 1 @zlmaxsize 1000"
				}

			}
, 			{
				"box" : 				{
					"format" : 6,
					"id" : "obj-1398",
					"maxclass" : "flonum",
					"numinlets" : 1,
					"numoutlets" : 2,
					"outlettype" : [ "", "bang" ],
					"parameter_enable" : 0,
					"patching_rect" : [ 1049.0, 804.0, 50.0, 22.0 ]
				}

			}
, 			{
				"box" : 				{
					"id" : "obj-1399",
					"maxclass" : "newobj",
					"numinlets" : 2,
					"numoutlets" : 2,
					"outlettype" : [ "", "" ],
					"patching_rect" : [ 1049.0, 778.0, 153.0, 22.0 ],
					"text" : "zl.slice 1 @zlmaxsize 1000"
				}

			}
, 			{
				"box" : 				{
					"format" : 6,
					"id" : "obj-1400",
					"maxclass" : "flonum",
					"numinlets" : 1,
					"numoutlets" : 2,
					"outlettype" : [ "", "bang" ],
					"parameter_enable" : 0,
					"patching_rect" : [ 889.0, 804.0, 50.0, 22.0 ]
				}

			}
, 			{
				"box" : 				{
					"id" : "obj-1401",
					"maxclass" : "newobj",
					"numinlets" : 2,
					"numoutlets" : 2,
					"outlettype" : [ "", "" ],
					"patching_rect" : [ 889.0, 778.0, 153.0, 22.0 ],
					"text" : "zl.slice 1 @zlmaxsize 1000"
				}

			}
, 			{
				"box" : 				{
					"format" : 6,
					"id" : "obj-1402",
					"maxclass" : "flonum",
					"numinlets" : 1,
					"numoutlets" : 2,
					"outlettype" : [ "", "bang" ],
					"parameter_enable" : 0,
					"patching_rect" : [ 726.0, 804.0, 50.0, 22.0 ]
				}

			}
, 			{
				"box" : 				{
					"id" : "obj-1403",
					"maxclass" : "newobj",
					"numinlets" : 2,
					"numoutlets" : 2,
					"outlettype" : [ "", "" ],
					"patching_rect" : [ 726.0, 778.0, 153.0, 22.0 ],
					"text" : "zl.slice 1 @zlmaxsize 1000"
				}

			}
, 			{
				"box" : 				{
					"format" : 6,
					"id" : "obj-1404",
					"maxclass" : "flonum",
					"numinlets" : 1,
					"numoutlets" : 2,
					"outlettype" : [ "", "bang" ],
					"parameter_enable" : 0,
					"patching_rect" : [ 568.0, 804.0, 50.0, 22.0 ]
				}

			}
, 			{
				"box" : 				{
					"id" : "obj-1405",
					"maxclass" : "newobj",
					"numinlets" : 2,
					"numoutlets" : 2,
					"outlettype" : [ "", "" ],
					"patching_rect" : [ 568.0, 778.0, 153.0, 22.0 ],
					"text" : "zl.slice 1 @zlmaxsize 1000"
				}

			}
, 			{
				"box" : 				{
					"format" : 6,
					"id" : "obj-1406",
					"maxclass" : "flonum",
					"numinlets" : 1,
					"numoutlets" : 2,
					"outlettype" : [ "", "bang" ],
					"parameter_enable" : 0,
					"patching_rect" : [ 407.0, 804.0, 50.0, 22.0 ]
				}

			}
, 			{
				"box" : 				{
					"id" : "obj-1407",
					"maxclass" : "newobj",
					"numinlets" : 2,
					"numoutlets" : 2,
					"outlettype" : [ "", "" ],
					"patching_rect" : [ 407.0, 778.0, 153.0, 22.0 ],
					"text" : "zl.slice 1 @zlmaxsize 1000"
				}

			}
, 			{
				"box" : 				{
					"format" : 6,
					"id" : "obj-1408",
					"maxclass" : "flonum",
					"numinlets" : 1,
					"numoutlets" : 2,
					"outlettype" : [ "", "bang" ],
					"parameter_enable" : 0,
					"patching_rect" : [ 247.0, 804.0, 50.0, 22.0 ]
				}

			}
, 			{
				"box" : 				{
					"id" : "obj-1409",
					"maxclass" : "newobj",
					"numinlets" : 2,
					"numoutlets" : 2,
					"outlettype" : [ "", "" ],
					"patching_rect" : [ 247.0, 778.0, 153.0, 22.0 ],
					"text" : "zl.slice 1 @zlmaxsize 1000"
				}

			}
, 			{
				"box" : 				{
					"format" : 6,
					"id" : "obj-1410",
					"maxclass" : "flonum",
					"numinlets" : 1,
					"numoutlets" : 2,
					"outlettype" : [ "", "bang" ],
					"parameter_enable" : 0,
					"patching_rect" : [ 84.0, 804.0, 50.0, 22.0 ]
				}

			}
, 			{
				"box" : 				{
					"id" : "obj-1411",
					"maxclass" : "newobj",
					"numinlets" : 2,
					"numoutlets" : 2,
					"outlettype" : [ "", "" ],
					"patching_rect" : [ 84.0, 778.0, 153.0, 22.0 ],
					"text" : "zl.slice 1 @zlmaxsize 1000"
				}

			}
, 			{
				"box" : 				{
					"format" : 6,
					"id" : "obj-1412",
					"maxclass" : "flonum",
					"numinlets" : 1,
					"numoutlets" : 2,
					"outlettype" : [ "", "bang" ],
					"parameter_enable" : 0,
					"patching_rect" : [ 1210.0, 747.0, 50.0, 22.0 ]
				}

			}
, 			{
				"box" : 				{
					"id" : "obj-1413",
					"maxclass" : "newobj",
					"numinlets" : 2,
					"numoutlets" : 2,
					"outlettype" : [ "", "" ],
					"patching_rect" : [ 1210.0, 721.0, 153.0, 22.0 ],
					"text" : "zl.slice 1 @zlmaxsize 1000"
				}

			}
, 			{
				"box" : 				{
					"format" : 6,
					"id" : "obj-1414",
					"maxclass" : "flonum",
					"numinlets" : 1,
					"numoutlets" : 2,
					"outlettype" : [ "", "bang" ],
					"parameter_enable" : 0,
					"patching_rect" : [ 1049.0, 747.0, 50.0, 22.0 ]
				}

			}
, 			{
				"box" : 				{
					"id" : "obj-1415",
					"maxclass" : "newobj",
					"numinlets" : 2,
					"numoutlets" : 2,
					"outlettype" : [ "", "" ],
					"patching_rect" : [ 1049.0, 721.0, 153.0, 22.0 ],
					"text" : "zl.slice 1 @zlmaxsize 1000"
				}

			}
, 			{
				"box" : 				{
					"format" : 6,
					"id" : "obj-1416",
					"maxclass" : "flonum",
					"numinlets" : 1,
					"numoutlets" : 2,
					"outlettype" : [ "", "bang" ],
					"parameter_enable" : 0,
					"patching_rect" : [ 889.0, 747.0, 50.0, 22.0 ]
				}

			}
, 			{
				"box" : 				{
					"id" : "obj-1417",
					"maxclass" : "newobj",
					"numinlets" : 2,
					"numoutlets" : 2,
					"outlettype" : [ "", "" ],
					"patching_rect" : [ 889.0, 721.0, 153.0, 22.0 ],
					"text" : "zl.slice 1 @zlmaxsize 1000"
				}

			}
, 			{
				"box" : 				{
					"format" : 6,
					"id" : "obj-1418",
					"maxclass" : "flonum",
					"numinlets" : 1,
					"numoutlets" : 2,
					"outlettype" : [ "", "bang" ],
					"parameter_enable" : 0,
					"patching_rect" : [ 726.0, 747.0, 50.0, 22.0 ]
				}

			}
, 			{
				"box" : 				{
					"id" : "obj-1419",
					"maxclass" : "newobj",
					"numinlets" : 2,
					"numoutlets" : 2,
					"outlettype" : [ "", "" ],
					"patching_rect" : [ 726.0, 721.0, 153.0, 22.0 ],
					"text" : "zl.slice 1 @zlmaxsize 1000"
				}

			}
, 			{
				"box" : 				{
					"format" : 6,
					"id" : "obj-1420",
					"maxclass" : "flonum",
					"numinlets" : 1,
					"numoutlets" : 2,
					"outlettype" : [ "", "bang" ],
					"parameter_enable" : 0,
					"patching_rect" : [ 568.0, 747.0, 50.0, 22.0 ]
				}

			}
, 			{
				"box" : 				{
					"id" : "obj-1421",
					"maxclass" : "newobj",
					"numinlets" : 2,
					"numoutlets" : 2,
					"outlettype" : [ "", "" ],
					"patching_rect" : [ 568.0, 721.0, 153.0, 22.0 ],
					"text" : "zl.slice 1 @zlmaxsize 1000"
				}

			}
, 			{
				"box" : 				{
					"format" : 6,
					"id" : "obj-1422",
					"maxclass" : "flonum",
					"numinlets" : 1,
					"numoutlets" : 2,
					"outlettype" : [ "", "bang" ],
					"parameter_enable" : 0,
					"patching_rect" : [ 407.0, 747.0, 50.0, 22.0 ]
				}

			}
, 			{
				"box" : 				{
					"id" : "obj-1423",
					"maxclass" : "newobj",
					"numinlets" : 2,
					"numoutlets" : 2,
					"outlettype" : [ "", "" ],
					"patching_rect" : [ 407.0, 721.0, 153.0, 22.0 ],
					"text" : "zl.slice 1 @zlmaxsize 1000"
				}

			}
, 			{
				"box" : 				{
					"format" : 6,
					"id" : "obj-1424",
					"maxclass" : "flonum",
					"numinlets" : 1,
					"numoutlets" : 2,
					"outlettype" : [ "", "bang" ],
					"parameter_enable" : 0,
					"patching_rect" : [ 247.0, 747.0, 50.0, 22.0 ]
				}

			}
, 			{
				"box" : 				{
					"id" : "obj-1425",
					"maxclass" : "newobj",
					"numinlets" : 2,
					"numoutlets" : 2,
					"outlettype" : [ "", "" ],
					"patching_rect" : [ 247.0, 721.0, 153.0, 22.0 ],
					"text" : "zl.slice 1 @zlmaxsize 1000"
				}

			}
, 			{
				"box" : 				{
					"format" : 6,
					"id" : "obj-1426",
					"maxclass" : "flonum",
					"numinlets" : 1,
					"numoutlets" : 2,
					"outlettype" : [ "", "bang" ],
					"parameter_enable" : 0,
					"patching_rect" : [ 84.0, 747.0, 50.0, 22.0 ]
				}

			}
, 			{
				"box" : 				{
					"id" : "obj-1427",
					"maxclass" : "newobj",
					"numinlets" : 2,
					"numoutlets" : 2,
					"outlettype" : [ "", "" ],
					"patching_rect" : [ 84.0, 721.0, 153.0, 22.0 ],
					"text" : "zl.slice 1 @zlmaxsize 1000"
				}

			}
, 			{
				"box" : 				{
					"format" : 6,
					"id" : "obj-1332",
					"maxclass" : "flonum",
					"numinlets" : 1,
					"numoutlets" : 2,
					"outlettype" : [ "", "bang" ],
					"parameter_enable" : 0,
					"patching_rect" : [ 1210.0, 690.0, 50.0, 22.0 ]
				}

			}
, 			{
				"box" : 				{
					"id" : "obj-1333",
					"maxclass" : "newobj",
					"numinlets" : 2,
					"numoutlets" : 2,
					"outlettype" : [ "", "" ],
					"patching_rect" : [ 1210.0, 664.0, 153.0, 22.0 ],
					"text" : "zl.slice 1 @zlmaxsize 1000"
				}

			}
, 			{
				"box" : 				{
					"format" : 6,
					"id" : "obj-1334",
					"maxclass" : "flonum",
					"numinlets" : 1,
					"numoutlets" : 2,
					"outlettype" : [ "", "bang" ],
					"parameter_enable" : 0,
					"patching_rect" : [ 1049.0, 690.0, 50.0, 22.0 ]
				}

			}
, 			{
				"box" : 				{
					"id" : "obj-1335",
					"maxclass" : "newobj",
					"numinlets" : 2,
					"numoutlets" : 2,
					"outlettype" : [ "", "" ],
					"patching_rect" : [ 1049.0, 664.0, 153.0, 22.0 ],
					"text" : "zl.slice 1 @zlmaxsize 1000"
				}

			}
, 			{
				"box" : 				{
					"format" : 6,
					"id" : "obj-1336",
					"maxclass" : "flonum",
					"numinlets" : 1,
					"numoutlets" : 2,
					"outlettype" : [ "", "bang" ],
					"parameter_enable" : 0,
					"patching_rect" : [ 889.0, 690.0, 50.0, 22.0 ]
				}

			}
, 			{
				"box" : 				{
					"id" : "obj-1337",
					"maxclass" : "newobj",
					"numinlets" : 2,
					"numoutlets" : 2,
					"outlettype" : [ "", "" ],
					"patching_rect" : [ 889.0, 664.0, 153.0, 22.0 ],
					"text" : "zl.slice 1 @zlmaxsize 1000"
				}

			}
, 			{
				"box" : 				{
					"format" : 6,
					"id" : "obj-1338",
					"maxclass" : "flonum",
					"numinlets" : 1,
					"numoutlets" : 2,
					"outlettype" : [ "", "bang" ],
					"parameter_enable" : 0,
					"patching_rect" : [ 726.0, 690.0, 50.0, 22.0 ]
				}

			}
, 			{
				"box" : 				{
					"id" : "obj-1339",
					"maxclass" : "newobj",
					"numinlets" : 2,
					"numoutlets" : 2,
					"outlettype" : [ "", "" ],
					"patching_rect" : [ 726.0, 664.0, 153.0, 22.0 ],
					"text" : "zl.slice 1 @zlmaxsize 1000"
				}

			}
, 			{
				"box" : 				{
					"format" : 6,
					"id" : "obj-1340",
					"maxclass" : "flonum",
					"numinlets" : 1,
					"numoutlets" : 2,
					"outlettype" : [ "", "bang" ],
					"parameter_enable" : 0,
					"patching_rect" : [ 568.0, 690.0, 50.0, 22.0 ]
				}

			}
, 			{
				"box" : 				{
					"id" : "obj-1341",
					"maxclass" : "newobj",
					"numinlets" : 2,
					"numoutlets" : 2,
					"outlettype" : [ "", "" ],
					"patching_rect" : [ 568.0, 664.0, 153.0, 22.0 ],
					"text" : "zl.slice 1 @zlmaxsize 1000"
				}

			}
, 			{
				"box" : 				{
					"format" : 6,
					"id" : "obj-1342",
					"maxclass" : "flonum",
					"numinlets" : 1,
					"numoutlets" : 2,
					"outlettype" : [ "", "bang" ],
					"parameter_enable" : 0,
					"patching_rect" : [ 407.0, 690.0, 50.0, 22.0 ]
				}

			}
, 			{
				"box" : 				{
					"id" : "obj-1343",
					"maxclass" : "newobj",
					"numinlets" : 2,
					"numoutlets" : 2,
					"outlettype" : [ "", "" ],
					"patching_rect" : [ 407.0, 664.0, 153.0, 22.0 ],
					"text" : "zl.slice 1 @zlmaxsize 1000"
				}

			}
, 			{
				"box" : 				{
					"format" : 6,
					"id" : "obj-1344",
					"maxclass" : "flonum",
					"numinlets" : 1,
					"numoutlets" : 2,
					"outlettype" : [ "", "bang" ],
					"parameter_enable" : 0,
					"patching_rect" : [ 247.0, 690.0, 50.0, 22.0 ]
				}

			}
, 			{
				"box" : 				{
					"id" : "obj-1345",
					"maxclass" : "newobj",
					"numinlets" : 2,
					"numoutlets" : 2,
					"outlettype" : [ "", "" ],
					"patching_rect" : [ 247.0, 664.0, 153.0, 22.0 ],
					"text" : "zl.slice 1 @zlmaxsize 1000"
				}

			}
, 			{
				"box" : 				{
					"format" : 6,
					"id" : "obj-1346",
					"maxclass" : "flonum",
					"numinlets" : 1,
					"numoutlets" : 2,
					"outlettype" : [ "", "bang" ],
					"parameter_enable" : 0,
					"patching_rect" : [ 84.0, 690.0, 50.0, 22.0 ]
				}

			}
, 			{
				"box" : 				{
					"id" : "obj-1347",
					"maxclass" : "newobj",
					"numinlets" : 2,
					"numoutlets" : 2,
					"outlettype" : [ "", "" ],
					"patching_rect" : [ 84.0, 664.0, 153.0, 22.0 ],
					"text" : "zl.slice 1 @zlmaxsize 1000"
				}

			}
, 			{
				"box" : 				{
					"format" : 6,
					"id" : "obj-1348",
					"maxclass" : "flonum",
					"numinlets" : 1,
					"numoutlets" : 2,
					"outlettype" : [ "", "bang" ],
					"parameter_enable" : 0,
					"patching_rect" : [ 1210.0, 633.0, 50.0, 22.0 ]
				}

			}
, 			{
				"box" : 				{
					"id" : "obj-1349",
					"maxclass" : "newobj",
					"numinlets" : 2,
					"numoutlets" : 2,
					"outlettype" : [ "", "" ],
					"patching_rect" : [ 1210.0, 607.0, 153.0, 22.0 ],
					"text" : "zl.slice 1 @zlmaxsize 1000"
				}

			}
, 			{
				"box" : 				{
					"format" : 6,
					"id" : "obj-1350",
					"maxclass" : "flonum",
					"numinlets" : 1,
					"numoutlets" : 2,
					"outlettype" : [ "", "bang" ],
					"parameter_enable" : 0,
					"patching_rect" : [ 1049.0, 633.0, 50.0, 22.0 ]
				}

			}
, 			{
				"box" : 				{
					"id" : "obj-1351",
					"maxclass" : "newobj",
					"numinlets" : 2,
					"numoutlets" : 2,
					"outlettype" : [ "", "" ],
					"patching_rect" : [ 1049.0, 607.0, 153.0, 22.0 ],
					"text" : "zl.slice 1 @zlmaxsize 1000"
				}

			}
, 			{
				"box" : 				{
					"format" : 6,
					"id" : "obj-1352",
					"maxclass" : "flonum",
					"numinlets" : 1,
					"numoutlets" : 2,
					"outlettype" : [ "", "bang" ],
					"parameter_enable" : 0,
					"patching_rect" : [ 889.0, 633.0, 50.0, 22.0 ]
				}

			}
, 			{
				"box" : 				{
					"id" : "obj-1353",
					"maxclass" : "newobj",
					"numinlets" : 2,
					"numoutlets" : 2,
					"outlettype" : [ "", "" ],
					"patching_rect" : [ 889.0, 607.0, 153.0, 22.0 ],
					"text" : "zl.slice 1 @zlmaxsize 1000"
				}

			}
, 			{
				"box" : 				{
					"format" : 6,
					"id" : "obj-1354",
					"maxclass" : "flonum",
					"numinlets" : 1,
					"numoutlets" : 2,
					"outlettype" : [ "", "bang" ],
					"parameter_enable" : 0,
					"patching_rect" : [ 726.0, 633.0, 50.0, 22.0 ]
				}

			}
, 			{
				"box" : 				{
					"id" : "obj-1355",
					"maxclass" : "newobj",
					"numinlets" : 2,
					"numoutlets" : 2,
					"outlettype" : [ "", "" ],
					"patching_rect" : [ 726.0, 607.0, 153.0, 22.0 ],
					"text" : "zl.slice 1 @zlmaxsize 1000"
				}

			}
, 			{
				"box" : 				{
					"format" : 6,
					"id" : "obj-1356",
					"maxclass" : "flonum",
					"numinlets" : 1,
					"numoutlets" : 2,
					"outlettype" : [ "", "bang" ],
					"parameter_enable" : 0,
					"patching_rect" : [ 568.0, 633.0, 50.0, 22.0 ]
				}

			}
, 			{
				"box" : 				{
					"id" : "obj-1357",
					"maxclass" : "newobj",
					"numinlets" : 2,
					"numoutlets" : 2,
					"outlettype" : [ "", "" ],
					"patching_rect" : [ 568.0, 607.0, 153.0, 22.0 ],
					"text" : "zl.slice 1 @zlmaxsize 1000"
				}

			}
, 			{
				"box" : 				{
					"format" : 6,
					"id" : "obj-1358",
					"maxclass" : "flonum",
					"numinlets" : 1,
					"numoutlets" : 2,
					"outlettype" : [ "", "bang" ],
					"parameter_enable" : 0,
					"patching_rect" : [ 407.0, 633.0, 50.0, 22.0 ]
				}

			}
, 			{
				"box" : 				{
					"id" : "obj-1359",
					"maxclass" : "newobj",
					"numinlets" : 2,
					"numoutlets" : 2,
					"outlettype" : [ "", "" ],
					"patching_rect" : [ 407.0, 607.0, 153.0, 22.0 ],
					"text" : "zl.slice 1 @zlmaxsize 1000"
				}

			}
, 			{
				"box" : 				{
					"format" : 6,
					"id" : "obj-1360",
					"maxclass" : "flonum",
					"numinlets" : 1,
					"numoutlets" : 2,
					"outlettype" : [ "", "bang" ],
					"parameter_enable" : 0,
					"patching_rect" : [ 247.0, 633.0, 50.0, 22.0 ]
				}

			}
, 			{
				"box" : 				{
					"id" : "obj-1361",
					"maxclass" : "newobj",
					"numinlets" : 2,
					"numoutlets" : 2,
					"outlettype" : [ "", "" ],
					"patching_rect" : [ 247.0, 607.0, 153.0, 22.0 ],
					"text" : "zl.slice 1 @zlmaxsize 1000"
				}

			}
, 			{
				"box" : 				{
					"format" : 6,
					"id" : "obj-1362",
					"maxclass" : "flonum",
					"numinlets" : 1,
					"numoutlets" : 2,
					"outlettype" : [ "", "bang" ],
					"parameter_enable" : 0,
					"patching_rect" : [ 84.0, 633.0, 50.0, 22.0 ]
				}

			}
, 			{
				"box" : 				{
					"id" : "obj-1363",
					"maxclass" : "newobj",
					"numinlets" : 2,
					"numoutlets" : 2,
					"outlettype" : [ "", "" ],
					"patching_rect" : [ 84.0, 607.0, 153.0, 22.0 ],
					"text" : "zl.slice 1 @zlmaxsize 1000"
				}

			}
, 			{
				"box" : 				{
					"format" : 6,
					"id" : "obj-1316",
					"maxclass" : "flonum",
					"numinlets" : 1,
					"numoutlets" : 2,
					"outlettype" : [ "", "bang" ],
					"parameter_enable" : 0,
					"patching_rect" : [ 1210.0, 576.0, 50.0, 22.0 ]
				}

			}
, 			{
				"box" : 				{
					"id" : "obj-1317",
					"maxclass" : "newobj",
					"numinlets" : 2,
					"numoutlets" : 2,
					"outlettype" : [ "", "" ],
					"patching_rect" : [ 1210.0, 550.0, 153.0, 22.0 ],
					"text" : "zl.slice 1 @zlmaxsize 1000"
				}

			}
, 			{
				"box" : 				{
					"format" : 6,
					"id" : "obj-1318",
					"maxclass" : "flonum",
					"numinlets" : 1,
					"numoutlets" : 2,
					"outlettype" : [ "", "bang" ],
					"parameter_enable" : 0,
					"patching_rect" : [ 1049.0, 576.0, 50.0, 22.0 ]
				}

			}
, 			{
				"box" : 				{
					"id" : "obj-1319",
					"maxclass" : "newobj",
					"numinlets" : 2,
					"numoutlets" : 2,
					"outlettype" : [ "", "" ],
					"patching_rect" : [ 1049.0, 550.0, 153.0, 22.0 ],
					"text" : "zl.slice 1 @zlmaxsize 1000"
				}

			}
, 			{
				"box" : 				{
					"format" : 6,
					"id" : "obj-1320",
					"maxclass" : "flonum",
					"numinlets" : 1,
					"numoutlets" : 2,
					"outlettype" : [ "", "bang" ],
					"parameter_enable" : 0,
					"patching_rect" : [ 889.0, 576.0, 50.0, 22.0 ]
				}

			}
, 			{
				"box" : 				{
					"id" : "obj-1321",
					"maxclass" : "newobj",
					"numinlets" : 2,
					"numoutlets" : 2,
					"outlettype" : [ "", "" ],
					"patching_rect" : [ 889.0, 550.0, 153.0, 22.0 ],
					"text" : "zl.slice 1 @zlmaxsize 1000"
				}

			}
, 			{
				"box" : 				{
					"format" : 6,
					"id" : "obj-1322",
					"maxclass" : "flonum",
					"numinlets" : 1,
					"numoutlets" : 2,
					"outlettype" : [ "", "bang" ],
					"parameter_enable" : 0,
					"patching_rect" : [ 726.0, 576.0, 50.0, 22.0 ]
				}

			}
, 			{
				"box" : 				{
					"id" : "obj-1323",
					"maxclass" : "newobj",
					"numinlets" : 2,
					"numoutlets" : 2,
					"outlettype" : [ "", "" ],
					"patching_rect" : [ 726.0, 550.0, 153.0, 22.0 ],
					"text" : "zl.slice 1 @zlmaxsize 1000"
				}

			}
, 			{
				"box" : 				{
					"format" : 6,
					"id" : "obj-1324",
					"maxclass" : "flonum",
					"numinlets" : 1,
					"numoutlets" : 2,
					"outlettype" : [ "", "bang" ],
					"parameter_enable" : 0,
					"patching_rect" : [ 568.0, 576.0, 50.0, 22.0 ]
				}

			}
, 			{
				"box" : 				{
					"id" : "obj-1325",
					"maxclass" : "newobj",
					"numinlets" : 2,
					"numoutlets" : 2,
					"outlettype" : [ "", "" ],
					"patching_rect" : [ 568.0, 550.0, 153.0, 22.0 ],
					"text" : "zl.slice 1 @zlmaxsize 1000"
				}

			}
, 			{
				"box" : 				{
					"format" : 6,
					"id" : "obj-1326",
					"maxclass" : "flonum",
					"numinlets" : 1,
					"numoutlets" : 2,
					"outlettype" : [ "", "bang" ],
					"parameter_enable" : 0,
					"patching_rect" : [ 407.0, 576.0, 50.0, 22.0 ]
				}

			}
, 			{
				"box" : 				{
					"id" : "obj-1327",
					"maxclass" : "newobj",
					"numinlets" : 2,
					"numoutlets" : 2,
					"outlettype" : [ "", "" ],
					"patching_rect" : [ 407.0, 550.0, 153.0, 22.0 ],
					"text" : "zl.slice 1 @zlmaxsize 1000"
				}

			}
, 			{
				"box" : 				{
					"format" : 6,
					"id" : "obj-1328",
					"maxclass" : "flonum",
					"numinlets" : 1,
					"numoutlets" : 2,
					"outlettype" : [ "", "bang" ],
					"parameter_enable" : 0,
					"patching_rect" : [ 247.0, 576.0, 50.0, 22.0 ]
				}

			}
, 			{
				"box" : 				{
					"id" : "obj-1329",
					"maxclass" : "newobj",
					"numinlets" : 2,
					"numoutlets" : 2,
					"outlettype" : [ "", "" ],
					"patching_rect" : [ 247.0, 550.0, 153.0, 22.0 ],
					"text" : "zl.slice 1 @zlmaxsize 1000"
				}

			}
, 			{
				"box" : 				{
					"format" : 6,
					"id" : "obj-1330",
					"maxclass" : "flonum",
					"numinlets" : 1,
					"numoutlets" : 2,
					"outlettype" : [ "", "bang" ],
					"parameter_enable" : 0,
					"patching_rect" : [ 84.0, 576.0, 50.0, 22.0 ]
				}

			}
, 			{
				"box" : 				{
					"id" : "obj-1331",
					"maxclass" : "newobj",
					"numinlets" : 2,
					"numoutlets" : 2,
					"outlettype" : [ "", "" ],
					"patching_rect" : [ 84.0, 550.0, 153.0, 22.0 ],
					"text" : "zl.slice 1 @zlmaxsize 1000"
				}

			}
, 			{
				"box" : 				{
					"format" : 6,
					"id" : "obj-1308",
					"maxclass" : "flonum",
					"numinlets" : 1,
					"numoutlets" : 2,
					"outlettype" : [ "", "bang" ],
					"parameter_enable" : 0,
					"patching_rect" : [ 1210.0, 519.0, 50.0, 22.0 ]
				}

			}
, 			{
				"box" : 				{
					"id" : "obj-1309",
					"maxclass" : "newobj",
					"numinlets" : 2,
					"numoutlets" : 2,
					"outlettype" : [ "", "" ],
					"patching_rect" : [ 1210.0, 493.0, 153.0, 22.0 ],
					"text" : "zl.slice 1 @zlmaxsize 1000"
				}

			}
, 			{
				"box" : 				{
					"format" : 6,
					"id" : "obj-1310",
					"maxclass" : "flonum",
					"numinlets" : 1,
					"numoutlets" : 2,
					"outlettype" : [ "", "bang" ],
					"parameter_enable" : 0,
					"patching_rect" : [ 1049.0, 519.0, 50.0, 22.0 ]
				}

			}
, 			{
				"box" : 				{
					"id" : "obj-1311",
					"maxclass" : "newobj",
					"numinlets" : 2,
					"numoutlets" : 2,
					"outlettype" : [ "", "" ],
					"patching_rect" : [ 1049.0, 493.0, 153.0, 22.0 ],
					"text" : "zl.slice 1 @zlmaxsize 1000"
				}

			}
, 			{
				"box" : 				{
					"format" : 6,
					"id" : "obj-1312",
					"maxclass" : "flonum",
					"numinlets" : 1,
					"numoutlets" : 2,
					"outlettype" : [ "", "bang" ],
					"parameter_enable" : 0,
					"patching_rect" : [ 889.0, 519.0, 50.0, 22.0 ]
				}

			}
, 			{
				"box" : 				{
					"id" : "obj-1313",
					"maxclass" : "newobj",
					"numinlets" : 2,
					"numoutlets" : 2,
					"outlettype" : [ "", "" ],
					"patching_rect" : [ 889.0, 493.0, 153.0, 22.0 ],
					"text" : "zl.slice 1 @zlmaxsize 1000"
				}

			}
, 			{
				"box" : 				{
					"format" : 6,
					"id" : "obj-1314",
					"maxclass" : "flonum",
					"numinlets" : 1,
					"numoutlets" : 2,
					"outlettype" : [ "", "bang" ],
					"parameter_enable" : 0,
					"patching_rect" : [ 726.0, 519.0, 50.0, 22.0 ]
				}

			}
, 			{
				"box" : 				{
					"id" : "obj-1315",
					"maxclass" : "newobj",
					"numinlets" : 2,
					"numoutlets" : 2,
					"outlettype" : [ "", "" ],
					"patching_rect" : [ 726.0, 493.0, 153.0, 22.0 ],
					"text" : "zl.slice 1 @zlmaxsize 1000"
				}

			}
, 			{
				"box" : 				{
					"format" : 6,
					"id" : "obj-1306",
					"maxclass" : "flonum",
					"numinlets" : 1,
					"numoutlets" : 2,
					"outlettype" : [ "", "bang" ],
					"parameter_enable" : 0,
					"patching_rect" : [ 568.0, 519.0, 50.0, 22.0 ]
				}

			}
, 			{
				"box" : 				{
					"id" : "obj-1307",
					"maxclass" : "newobj",
					"numinlets" : 2,
					"numoutlets" : 2,
					"outlettype" : [ "", "" ],
					"patching_rect" : [ 568.0, 493.0, 153.0, 22.0 ],
					"text" : "zl.slice 1 @zlmaxsize 1000"
				}

			}
, 			{
				"box" : 				{
					"format" : 6,
					"id" : "obj-1302",
					"maxclass" : "flonum",
					"numinlets" : 1,
					"numoutlets" : 2,
					"outlettype" : [ "", "bang" ],
					"parameter_enable" : 0,
					"patching_rect" : [ 407.0, 519.0, 50.0, 22.0 ]
				}

			}
, 			{
				"box" : 				{
					"id" : "obj-1305",
					"maxclass" : "newobj",
					"numinlets" : 2,
					"numoutlets" : 2,
					"outlettype" : [ "", "" ],
					"patching_rect" : [ 407.0, 493.0, 153.0, 22.0 ],
					"text" : "zl.slice 1 @zlmaxsize 1000"
				}

			}
, 			{
				"box" : 				{
					"format" : 6,
					"id" : "obj-1300",
					"maxclass" : "flonum",
					"numinlets" : 1,
					"numoutlets" : 2,
					"outlettype" : [ "", "bang" ],
					"parameter_enable" : 0,
					"patching_rect" : [ 247.0, 519.0, 50.0, 22.0 ]
				}

			}
, 			{
				"box" : 				{
					"id" : "obj-1301",
					"maxclass" : "newobj",
					"numinlets" : 2,
					"numoutlets" : 2,
					"outlettype" : [ "", "" ],
					"patching_rect" : [ 247.0, 493.0, 153.0, 22.0 ],
					"text" : "zl.slice 1 @zlmaxsize 1000"
				}

			}
, 			{
				"box" : 				{
					"format" : 6,
					"id" : "obj-1297",
					"maxclass" : "flonum",
					"numinlets" : 1,
					"numoutlets" : 2,
					"outlettype" : [ "", "bang" ],
					"parameter_enable" : 0,
					"patching_rect" : [ 84.0, 519.0, 50.0, 22.0 ]
				}

			}
, 			{
				"box" : 				{
					"id" : "obj-1298",
					"maxclass" : "newobj",
					"numinlets" : 2,
					"numoutlets" : 2,
					"outlettype" : [ "", "" ],
					"patching_rect" : [ 84.0, 493.0, 153.0, 22.0 ],
					"text" : "zl.slice 1 @zlmaxsize 1000"
				}

			}
, 			{
				"box" : 				{
					"id" : "obj-1304",
					"maxclass" : "newobj",
					"numinlets" : 2,
					"numoutlets" : 2,
					"outlettype" : [ "", "" ],
					"patching_rect" : [ 165.0, 425.0, 79.0, 22.0 ],
					"text" : "route Char00"
				}

			}
, 			{
				"box" : 				{
					"id" : "obj-1303",
					"maxclass" : "newobj",
					"numinlets" : 2,
					"numoutlets" : 2,
					"outlettype" : [ "", "" ],
					"patching_rect" : [ 165.0, 397.0, 46.0, 22.0 ],
					"text" : "route 0"
				}

			}
, 			{
				"box" : 				{
					"id" : "obj-1299",
					"maxclass" : "newobj",
					"numinlets" : 1,
					"numoutlets" : 2,
					"outlettype" : [ "bang", "" ],
					"patching_rect" : [ 68.333325028419495, 145.999997019767761, 29.5, 22.0 ],
					"text" : "t b l"
				}

			}
, 			{
				"box" : 				{
					"id" : "obj-1295",
					"maxclass" : "newobj",
					"numinlets" : 1,
					"numoutlets" : 1,
					"outlettype" : [ "" ],
					"patching_rect" : [ 165.0, 343.000001311302185, 71.0, 22.0 ],
					"text" : "fromsymbol"
				}

			}
, 			{
				"box" : 				{
					"id" : "obj-1294",
					"maxclass" : "newobj",
					"numinlets" : 2,
					"numoutlets" : 1,
					"outlettype" : [ "" ],
					"patching_rect" : [ 68.333325028419495, 118.666664123535156, 52.0, 22.0 ],
					"text" : "thresh 8"
				}

			}
, 			{
				"box" : 				{
					"id" : "obj-523",
					"linecount" : 6,
					"maxclass" : "message",
					"numinlets" : 2,
					"numoutlets" : 1,
					"outlettype" : [ "" ],
					"patching_rect" : [ 68.166659235954285, 173.666662812232971, 1024.0, 89.0 ],
					"text" : "\"0 Char00 -32.48 30.17 -50.41 -163.45 72.67 -58.44 -10.61 -19.83 -158.20 103.35 -0.00 -0.00 94.47 59.50 84.73 -123.83 9.09 -17.30 44.47 0.00 0.00 21.06 24.50 -115.37 53.33 17.03 11.05 16.55 8.09 3.89 18.30 15.68 4.58 -2.52 -2.25 -1.94 -60.64 33.36 -41.28 -14.47 28.92 -24.90 26.16 13.06 42.59 -156.21 -46.70 175.34 -20.01 33.60 50.39 55.52 17.81 -23.85 0.00 34.49 73.91 0.00 -42.65 27.03 0.00 -87.36 0.00 0.00 0.00 0.00 0.00 15.00 -41.37 0.00 0.00 90.39 0.00 0.00 45.19 0.00 0.00 0.00 0.00 0.00 -42.79 0.00 0.00 -42.79 0.00 0.00 -42.79 0.00 0.00 0.00 0.00 -15.00 46.47 0.00 0.00 46.47 0.00 0.00 46.47 0.00 0.00 0.00 0.00 -25.00 -23.43 0.00 0.00 -23.43 0.00 0.00 -23.43 143.31 -2.52 133.76 -45.77 -60.55 -85.37 164.68 -1.90 172.92 -46.07 27.60 -149.37 -118.24 0.00 -42.10 -108.42 0.00 -2.90 177.28 0.00 -0.00 0.00 0.00 0.00 0.00 -15.00 44.64 0.00 0.00 -48.42 0.00 0.00 -24.21 0.00 0.00 0.00 0.00 0.00 27.09 0.00 0.00 27.09 0.00 0.00 27.09 0.00 0.00 0.00 0.00 15.00 -68.96 0.00 0.00 -68.96 0.00 0.00 -68.96 0.00 0.00 0.00 0.00 \" \"25.00 -63.57 0.00 0.00 -63.57 0.00 0.00 -63.57 ||\""
				}

			}
, 			{
				"box" : 				{
					"id" : "obj-2",
					"maxclass" : "newobj",
					"numinlets" : 3,
					"numoutlets" : 1,
					"outlettype" : [ "int" ],
					"patching_rect" : [ 68.333325028419495, 91.666664123535156, 40.0, 22.0 ],
					"text" : "itoa"
				}

			}
, 			{
				"box" : 				{
					"id" : "obj-1553",
					"linecount" : 11,
					"maxclass" : "message",
					"numinlets" : 2,
					"numoutlets" : 1,
					"outlettype" : [ "" ],
					"patching_rect" : [ 2445.0, 1221.0, 499.0, 156.0 ],
					"text" : "138 238 158 15 182 50 20 237 142 148 81 125 133 254 143 187 182 222 198 176 106 118 179 19 158 246 211 198 153 221 180 206 253 26 220 130 242 120 13 174 90 252 6 67 197 165 57 50 126 124 86 120 63 131 219 153 247 57 195 210 152 54 5 13 47 251 252 41 97 1 93 111 94 145 6 183 227 250 18 13 238 197 92 97 206 130 215 188 70 72 253 39 212 153 220 202 131 159 60 230 22 55 28 81 97 55 131 7 116 239 238 90 169 193 221 57 62 168 134 230 246 52 229 16 252 52 113 139 224 198 189 229 10 186 106 205 20 99 121 201 4 209 219 135 24 226 116 185 20 250 8 135 130 123 118 87 38 222 249 172 138 66 25 93 100 194 144 111 27 199 163 179 253 20 215 55 213 73 112 172 171 145 112 226 166 120 201 49 115 133 177 45 115 82 25 74 182 120 40 14 197 68 72 144 142 91 21 88 95 140 225 240 78 30 99 216 96 73 116 251 141 37 193 198 62 249 35 47 247 27 75 130 157 164 1 211 16 198 106 164 194 88 162 105 44 9 54 246"
				}

			}
, 			{
				"box" : 				{
					"id" : "obj-1033",
					"maxclass" : "button",
					"numinlets" : 1,
					"numoutlets" : 1,
					"outlettype" : [ "bang" ],
					"parameter_enable" : 0,
					"patching_rect" : [ 136.0, 79.0, 24.0, 24.0 ]
				}

			}
, 			{
				"box" : 				{
					"format" : 6,
					"id" : "obj-6",
					"maxclass" : "flonum",
					"numinlets" : 1,
					"numoutlets" : 2,
					"outlettype" : [ "", "bang" ],
					"parameter_enable" : 0,
					"patching_rect" : [ 78.0, 439.0, 50.0, 22.0 ]
				}

			}
, 			{
				"box" : 				{
					"id" : "obj-4",
					"maxclass" : "newobj",
					"numinlets" : 2,
					"numoutlets" : 2,
					"outlettype" : [ "", "" ],
					"patching_rect" : [ 78.0, 411.0, 37.0, 22.0 ],
					"text" : "zl.len"
				}

			}
, 			{
				"box" : 				{
					"id" : "obj-3",
					"maxclass" : "message",
					"numinlets" : 2,
					"numoutlets" : 1,
					"outlettype" : [ "" ],
					"patching_rect" : [ 136.0, 107.0, 882.0, 22.0 ],
					"text" : "50 53 46 48 48 32 45 54 51 46 53 55 32 48 46 48 48 32 48 46 48 48 32 45 54 51 46 53 55 32 48 46 48 48 32 48 46 48 48 32 45 54 51 46 53 55 32 124 124"
				}

			}
, 			{
				"box" : 				{
					"id" : "obj-1",
					"maxclass" : "newobj",
					"numinlets" : 1,
					"numoutlets" : 2,
					"outlettype" : [ "list", "int" ],
					"patching_rect" : [ 136.0, 47.0, 145.0, 22.0 ],
					"text" : "sadam.udpReceiver 7002"
				}

			}
 ],
		"lines" : [ 			{
				"patchline" : 				{
					"destination" : [ "obj-1033", 0 ],
					"order" : 1,
					"source" : [ "obj-1", 0 ]
				}

			}
, 			{
				"patchline" : 				{
					"destination" : [ "obj-2", 0 ],
					"order" : 2,
					"source" : [ "obj-1", 0 ]
				}

			}
, 			{
				"patchline" : 				{
					"destination" : [ "obj-3", 1 ],
					"order" : 0,
					"source" : [ "obj-1", 0 ]
				}

			}
, 			{
				"patchline" : 				{
					"destination" : [ "obj-3", 0 ],
					"source" : [ "obj-1033", 0 ]
				}

			}
, 			{
				"patchline" : 				{
					"destination" : [ "obj-1299", 0 ],
					"source" : [ "obj-1294", 0 ]
				}

			}
, 			{
				"patchline" : 				{
					"destination" : [ "obj-1303", 0 ],
					"order" : 0,
					"source" : [ "obj-1295", 0 ]
				}

			}
, 			{
				"patchline" : 				{
					"destination" : [ "obj-4", 0 ],
					"order" : 1,
					"source" : [ "obj-1295", 0 ]
				}

			}
, 			{
				"patchline" : 				{
					"destination" : [ "obj-1297", 0 ],
					"source" : [ "obj-1298", 0 ]
				}

			}
, 			{
				"patchline" : 				{
					"destination" : [ "obj-1301", 0 ],
					"source" : [ "obj-1298", 1 ]
				}

			}
, 			{
				"patchline" : 				{
					"destination" : [ "obj-523", 1 ],
					"source" : [ "obj-1299", 1 ]
				}

			}
, 			{
				"patchline" : 				{
					"destination" : [ "obj-523", 0 ],
					"source" : [ "obj-1299", 0 ]
				}

			}
, 			{
				"patchline" : 				{
					"destination" : [ "obj-1300", 0 ],
					"source" : [ "obj-1301", 0 ]
				}

			}
, 			{
				"patchline" : 				{
					"destination" : [ "obj-1305", 0 ],
					"source" : [ "obj-1301", 1 ]
				}

			}
, 			{
				"patchline" : 				{
					"destination" : [ "obj-1304", 0 ],
					"source" : [ "obj-1303", 0 ]
				}

			}
, 			{
				"patchline" : 				{
					"destination" : [ "obj-1298", 0 ],
					"source" : [ "obj-1304", 0 ]
				}

			}
, 			{
				"patchline" : 				{
					"destination" : [ "obj-1302", 0 ],
					"source" : [ "obj-1305", 0 ]
				}

			}
, 			{
				"patchline" : 				{
					"destination" : [ "obj-1307", 0 ],
					"source" : [ "obj-1305", 1 ]
				}

			}
, 			{
				"patchline" : 				{
					"destination" : [ "obj-1306", 0 ],
					"source" : [ "obj-1307", 0 ]
				}

			}
, 			{
				"patchline" : 				{
					"destination" : [ "obj-1315", 0 ],
					"source" : [ "obj-1307", 1 ]
				}

			}
, 			{
				"patchline" : 				{
					"destination" : [ "obj-1308", 0 ],
					"source" : [ "obj-1309", 0 ]
				}

			}
, 			{
				"patchline" : 				{
					"destination" : [ "obj-1331", 0 ],
					"source" : [ "obj-1309", 1 ]
				}

			}
, 			{
				"patchline" : 				{
					"destination" : [ "obj-1309", 0 ],
					"source" : [ "obj-1311", 1 ]
				}

			}
, 			{
				"patchline" : 				{
					"destination" : [ "obj-1310", 0 ],
					"source" : [ "obj-1311", 0 ]
				}

			}
, 			{
				"patchline" : 				{
					"destination" : [ "obj-1311", 0 ],
					"source" : [ "obj-1313", 1 ]
				}

			}
, 			{
				"patchline" : 				{
					"destination" : [ "obj-1312", 0 ],
					"source" : [ "obj-1313", 0 ]
				}

			}
, 			{
				"patchline" : 				{
					"destination" : [ "obj-1313", 0 ],
					"source" : [ "obj-1315", 1 ]
				}

			}
, 			{
				"patchline" : 				{
					"destination" : [ "obj-1314", 0 ],
					"source" : [ "obj-1315", 0 ]
				}

			}
, 			{
				"patchline" : 				{
					"destination" : [ "obj-1316", 0 ],
					"source" : [ "obj-1317", 0 ]
				}

			}
, 			{
				"patchline" : 				{
					"destination" : [ "obj-1363", 0 ],
					"source" : [ "obj-1317", 1 ]
				}

			}
, 			{
				"patchline" : 				{
					"destination" : [ "obj-1317", 0 ],
					"source" : [ "obj-1319", 1 ]
				}

			}
, 			{
				"patchline" : 				{
					"destination" : [ "obj-1318", 0 ],
					"source" : [ "obj-1319", 0 ]
				}

			}
, 			{
				"patchline" : 				{
					"destination" : [ "obj-1319", 0 ],
					"source" : [ "obj-1321", 1 ]
				}

			}
, 			{
				"patchline" : 				{
					"destination" : [ "obj-1320", 0 ],
					"source" : [ "obj-1321", 0 ]
				}

			}
, 			{
				"patchline" : 				{
					"destination" : [ "obj-1321", 0 ],
					"source" : [ "obj-1323", 1 ]
				}

			}
, 			{
				"patchline" : 				{
					"destination" : [ "obj-1322", 0 ],
					"source" : [ "obj-1323", 0 ]
				}

			}
, 			{
				"patchline" : 				{
					"destination" : [ "obj-1323", 0 ],
					"source" : [ "obj-1325", 1 ]
				}

			}
, 			{
				"patchline" : 				{
					"destination" : [ "obj-1324", 0 ],
					"source" : [ "obj-1325", 0 ]
				}

			}
, 			{
				"patchline" : 				{
					"destination" : [ "obj-1325", 0 ],
					"source" : [ "obj-1327", 1 ]
				}

			}
, 			{
				"patchline" : 				{
					"destination" : [ "obj-1326", 0 ],
					"source" : [ "obj-1327", 0 ]
				}

			}
, 			{
				"patchline" : 				{
					"destination" : [ "obj-1327", 0 ],
					"source" : [ "obj-1329", 1 ]
				}

			}
, 			{
				"patchline" : 				{
					"destination" : [ "obj-1328", 0 ],
					"source" : [ "obj-1329", 0 ]
				}

			}
, 			{
				"patchline" : 				{
					"destination" : [ "obj-1329", 0 ],
					"source" : [ "obj-1331", 1 ]
				}

			}
, 			{
				"patchline" : 				{
					"destination" : [ "obj-1330", 0 ],
					"source" : [ "obj-1331", 0 ]
				}

			}
, 			{
				"patchline" : 				{
					"destination" : [ "obj-1332", 0 ],
					"source" : [ "obj-1333", 0 ]
				}

			}
, 			{
				"patchline" : 				{
					"destination" : [ "obj-1427", 0 ],
					"source" : [ "obj-1333", 1 ]
				}

			}
, 			{
				"patchline" : 				{
					"destination" : [ "obj-1333", 0 ],
					"source" : [ "obj-1335", 1 ]
				}

			}
, 			{
				"patchline" : 				{
					"destination" : [ "obj-1334", 0 ],
					"source" : [ "obj-1335", 0 ]
				}

			}
, 			{
				"patchline" : 				{
					"destination" : [ "obj-1335", 0 ],
					"source" : [ "obj-1337", 1 ]
				}

			}
, 			{
				"patchline" : 				{
					"destination" : [ "obj-1336", 0 ],
					"source" : [ "obj-1337", 0 ]
				}

			}
, 			{
				"patchline" : 				{
					"destination" : [ "obj-1337", 0 ],
					"source" : [ "obj-1339", 1 ]
				}

			}
, 			{
				"patchline" : 				{
					"destination" : [ "obj-1338", 0 ],
					"source" : [ "obj-1339", 0 ]
				}

			}
, 			{
				"patchline" : 				{
					"destination" : [ "obj-1339", 0 ],
					"source" : [ "obj-1341", 1 ]
				}

			}
, 			{
				"patchline" : 				{
					"destination" : [ "obj-1340", 0 ],
					"source" : [ "obj-1341", 0 ]
				}

			}
, 			{
				"patchline" : 				{
					"destination" : [ "obj-1341", 0 ],
					"source" : [ "obj-1343", 1 ]
				}

			}
, 			{
				"patchline" : 				{
					"destination" : [ "obj-1342", 0 ],
					"source" : [ "obj-1343", 0 ]
				}

			}
, 			{
				"patchline" : 				{
					"destination" : [ "obj-1343", 0 ],
					"source" : [ "obj-1345", 1 ]
				}

			}
, 			{
				"patchline" : 				{
					"destination" : [ "obj-1344", 0 ],
					"source" : [ "obj-1345", 0 ]
				}

			}
, 			{
				"patchline" : 				{
					"destination" : [ "obj-1345", 0 ],
					"source" : [ "obj-1347", 1 ]
				}

			}
, 			{
				"patchline" : 				{
					"destination" : [ "obj-1346", 0 ],
					"source" : [ "obj-1347", 0 ]
				}

			}
, 			{
				"patchline" : 				{
					"destination" : [ "obj-1347", 0 ],
					"source" : [ "obj-1349", 1 ]
				}

			}
, 			{
				"patchline" : 				{
					"destination" : [ "obj-1348", 0 ],
					"source" : [ "obj-1349", 0 ]
				}

			}
, 			{
				"patchline" : 				{
					"destination" : [ "obj-1349", 0 ],
					"source" : [ "obj-1351", 1 ]
				}

			}
, 			{
				"patchline" : 				{
					"destination" : [ "obj-1350", 0 ],
					"source" : [ "obj-1351", 0 ]
				}

			}
, 			{
				"patchline" : 				{
					"destination" : [ "obj-1351", 0 ],
					"source" : [ "obj-1353", 1 ]
				}

			}
, 			{
				"patchline" : 				{
					"destination" : [ "obj-1352", 0 ],
					"source" : [ "obj-1353", 0 ]
				}

			}
, 			{
				"patchline" : 				{
					"destination" : [ "obj-1353", 0 ],
					"source" : [ "obj-1355", 1 ]
				}

			}
, 			{
				"patchline" : 				{
					"destination" : [ "obj-1354", 0 ],
					"source" : [ "obj-1355", 0 ]
				}

			}
, 			{
				"patchline" : 				{
					"destination" : [ "obj-1355", 0 ],
					"source" : [ "obj-1357", 1 ]
				}

			}
, 			{
				"patchline" : 				{
					"destination" : [ "obj-1356", 0 ],
					"source" : [ "obj-1357", 0 ]
				}

			}
, 			{
				"patchline" : 				{
					"destination" : [ "obj-1357", 0 ],
					"source" : [ "obj-1359", 1 ]
				}

			}
, 			{
				"patchline" : 				{
					"destination" : [ "obj-1358", 0 ],
					"source" : [ "obj-1359", 0 ]
				}

			}
, 			{
				"patchline" : 				{
					"destination" : [ "obj-1359", 0 ],
					"source" : [ "obj-1361", 1 ]
				}

			}
, 			{
				"patchline" : 				{
					"destination" : [ "obj-1360", 0 ],
					"source" : [ "obj-1361", 0 ]
				}

			}
, 			{
				"patchline" : 				{
					"destination" : [ "obj-1361", 0 ],
					"source" : [ "obj-1363", 1 ]
				}

			}
, 			{
				"patchline" : 				{
					"destination" : [ "obj-1362", 0 ],
					"source" : [ "obj-1363", 0 ]
				}

			}
, 			{
				"patchline" : 				{
					"destination" : [ "obj-1364", 0 ],
					"source" : [ "obj-1365", 0 ]
				}

			}
, 			{
				"patchline" : 				{
					"destination" : [ "obj-1365", 0 ],
					"source" : [ "obj-1367", 1 ]
				}

			}
, 			{
				"patchline" : 				{
					"destination" : [ "obj-1366", 0 ],
					"source" : [ "obj-1367", 0 ]
				}

			}
, 			{
				"patchline" : 				{
					"destination" : [ "obj-1367", 0 ],
					"source" : [ "obj-1369", 1 ]
				}

			}
, 			{
				"patchline" : 				{
					"destination" : [ "obj-1368", 0 ],
					"source" : [ "obj-1369", 0 ]
				}

			}
, 			{
				"patchline" : 				{
					"destination" : [ "obj-1369", 0 ],
					"source" : [ "obj-1371", 1 ]
				}

			}
, 			{
				"patchline" : 				{
					"destination" : [ "obj-1370", 0 ],
					"source" : [ "obj-1371", 0 ]
				}

			}
, 			{
				"patchline" : 				{
					"destination" : [ "obj-1371", 0 ],
					"source" : [ "obj-1373", 1 ]
				}

			}
, 			{
				"patchline" : 				{
					"destination" : [ "obj-1372", 0 ],
					"source" : [ "obj-1373", 0 ]
				}

			}
, 			{
				"patchline" : 				{
					"destination" : [ "obj-1373", 0 ],
					"source" : [ "obj-1375", 1 ]
				}

			}
, 			{
				"patchline" : 				{
					"destination" : [ "obj-1374", 0 ],
					"source" : [ "obj-1375", 0 ]
				}

			}
, 			{
				"patchline" : 				{
					"destination" : [ "obj-1375", 0 ],
					"source" : [ "obj-1377", 1 ]
				}

			}
, 			{
				"patchline" : 				{
					"destination" : [ "obj-1376", 0 ],
					"source" : [ "obj-1377", 0 ]
				}

			}
, 			{
				"patchline" : 				{
					"destination" : [ "obj-1377", 0 ],
					"source" : [ "obj-1379", 1 ]
				}

			}
, 			{
				"patchline" : 				{
					"destination" : [ "obj-1378", 0 ],
					"source" : [ "obj-1379", 0 ]
				}

			}
, 			{
				"patchline" : 				{
					"destination" : [ "obj-1379", 0 ],
					"source" : [ "obj-1381", 1 ]
				}

			}
, 			{
				"patchline" : 				{
					"destination" : [ "obj-1380", 0 ],
					"source" : [ "obj-1381", 0 ]
				}

			}
, 			{
				"patchline" : 				{
					"destination" : [ "obj-1381", 0 ],
					"source" : [ "obj-1383", 1 ]
				}

			}
, 			{
				"patchline" : 				{
					"destination" : [ "obj-1382", 0 ],
					"source" : [ "obj-1383", 0 ]
				}

			}
, 			{
				"patchline" : 				{
					"destination" : [ "obj-1383", 0 ],
					"source" : [ "obj-1385", 1 ]
				}

			}
, 			{
				"patchline" : 				{
					"destination" : [ "obj-1384", 0 ],
					"source" : [ "obj-1385", 0 ]
				}

			}
, 			{
				"patchline" : 				{
					"destination" : [ "obj-1385", 0 ],
					"source" : [ "obj-1387", 1 ]
				}

			}
, 			{
				"patchline" : 				{
					"destination" : [ "obj-1386", 0 ],
					"source" : [ "obj-1387", 0 ]
				}

			}
, 			{
				"patchline" : 				{
					"destination" : [ "obj-1387", 0 ],
					"source" : [ "obj-1389", 1 ]
				}

			}
, 			{
				"patchline" : 				{
					"destination" : [ "obj-1388", 0 ],
					"source" : [ "obj-1389", 0 ]
				}

			}
, 			{
				"patchline" : 				{
					"destination" : [ "obj-1389", 0 ],
					"source" : [ "obj-1391", 1 ]
				}

			}
, 			{
				"patchline" : 				{
					"destination" : [ "obj-1390", 0 ],
					"source" : [ "obj-1391", 0 ]
				}

			}
, 			{
				"patchline" : 				{
					"destination" : [ "obj-1391", 0 ],
					"source" : [ "obj-1393", 1 ]
				}

			}
, 			{
				"patchline" : 				{
					"destination" : [ "obj-1392", 0 ],
					"source" : [ "obj-1393", 0 ]
				}

			}
, 			{
				"patchline" : 				{
					"destination" : [ "obj-1393", 0 ],
					"source" : [ "obj-1395", 1 ]
				}

			}
, 			{
				"patchline" : 				{
					"destination" : [ "obj-1394", 0 ],
					"source" : [ "obj-1395", 0 ]
				}

			}
, 			{
				"patchline" : 				{
					"destination" : [ "obj-1395", 0 ],
					"source" : [ "obj-1397", 1 ]
				}

			}
, 			{
				"patchline" : 				{
					"destination" : [ "obj-1396", 0 ],
					"source" : [ "obj-1397", 0 ]
				}

			}
, 			{
				"patchline" : 				{
					"destination" : [ "obj-1397", 0 ],
					"source" : [ "obj-1399", 1 ]
				}

			}
, 			{
				"patchline" : 				{
					"destination" : [ "obj-1398", 0 ],
					"source" : [ "obj-1399", 0 ]
				}

			}
, 			{
				"patchline" : 				{
					"destination" : [ "obj-1399", 0 ],
					"source" : [ "obj-1401", 1 ]
				}

			}
, 			{
				"patchline" : 				{
					"destination" : [ "obj-1400", 0 ],
					"source" : [ "obj-1401", 0 ]
				}

			}
, 			{
				"patchline" : 				{
					"destination" : [ "obj-1401", 0 ],
					"source" : [ "obj-1403", 1 ]
				}

			}
, 			{
				"patchline" : 				{
					"destination" : [ "obj-1402", 0 ],
					"source" : [ "obj-1403", 0 ]
				}

			}
, 			{
				"patchline" : 				{
					"destination" : [ "obj-1403", 0 ],
					"source" : [ "obj-1405", 1 ]
				}

			}
, 			{
				"patchline" : 				{
					"destination" : [ "obj-1404", 0 ],
					"source" : [ "obj-1405", 0 ]
				}

			}
, 			{
				"patchline" : 				{
					"destination" : [ "obj-1405", 0 ],
					"source" : [ "obj-1407", 1 ]
				}

			}
, 			{
				"patchline" : 				{
					"destination" : [ "obj-1406", 0 ],
					"source" : [ "obj-1407", 0 ]
				}

			}
, 			{
				"patchline" : 				{
					"destination" : [ "obj-1407", 0 ],
					"source" : [ "obj-1409", 1 ]
				}

			}
, 			{
				"patchline" : 				{
					"destination" : [ "obj-1408", 0 ],
					"source" : [ "obj-1409", 0 ]
				}

			}
, 			{
				"patchline" : 				{
					"destination" : [ "obj-1409", 0 ],
					"source" : [ "obj-1411", 1 ]
				}

			}
, 			{
				"patchline" : 				{
					"destination" : [ "obj-1410", 0 ],
					"source" : [ "obj-1411", 0 ]
				}

			}
, 			{
				"patchline" : 				{
					"destination" : [ "obj-1411", 0 ],
					"source" : [ "obj-1413", 1 ]
				}

			}
, 			{
				"patchline" : 				{
					"destination" : [ "obj-1412", 0 ],
					"source" : [ "obj-1413", 0 ]
				}

			}
, 			{
				"patchline" : 				{
					"destination" : [ "obj-1413", 0 ],
					"source" : [ "obj-1415", 1 ]
				}

			}
, 			{
				"patchline" : 				{
					"destination" : [ "obj-1414", 0 ],
					"source" : [ "obj-1415", 0 ]
				}

			}
, 			{
				"patchline" : 				{
					"destination" : [ "obj-1415", 0 ],
					"source" : [ "obj-1417", 1 ]
				}

			}
, 			{
				"patchline" : 				{
					"destination" : [ "obj-1416", 0 ],
					"source" : [ "obj-1417", 0 ]
				}

			}
, 			{
				"patchline" : 				{
					"destination" : [ "obj-1417", 0 ],
					"source" : [ "obj-1419", 1 ]
				}

			}
, 			{
				"patchline" : 				{
					"destination" : [ "obj-1418", 0 ],
					"source" : [ "obj-1419", 0 ]
				}

			}
, 			{
				"patchline" : 				{
					"destination" : [ "obj-1419", 0 ],
					"source" : [ "obj-1421", 1 ]
				}

			}
, 			{
				"patchline" : 				{
					"destination" : [ "obj-1420", 0 ],
					"source" : [ "obj-1421", 0 ]
				}

			}
, 			{
				"patchline" : 				{
					"destination" : [ "obj-1421", 0 ],
					"source" : [ "obj-1423", 1 ]
				}

			}
, 			{
				"patchline" : 				{
					"destination" : [ "obj-1422", 0 ],
					"source" : [ "obj-1423", 0 ]
				}

			}
, 			{
				"patchline" : 				{
					"destination" : [ "obj-1423", 0 ],
					"source" : [ "obj-1425", 1 ]
				}

			}
, 			{
				"patchline" : 				{
					"destination" : [ "obj-1424", 0 ],
					"source" : [ "obj-1425", 0 ]
				}

			}
, 			{
				"patchline" : 				{
					"destination" : [ "obj-1425", 0 ],
					"source" : [ "obj-1427", 1 ]
				}

			}
, 			{
				"patchline" : 				{
					"destination" : [ "obj-1426", 0 ],
					"source" : [ "obj-1427", 0 ]
				}

			}
, 			{
				"patchline" : 				{
					"destination" : [ "obj-1294", 0 ],
					"source" : [ "obj-2", 0 ]
				}

			}
, 			{
				"patchline" : 				{
					"destination" : [ "obj-6", 0 ],
					"source" : [ "obj-4", 0 ]
				}

			}
, 			{
				"patchline" : 				{
					"destination" : [ "obj-1295", 0 ],
					"source" : [ "obj-523", 0 ]
				}

			}
 ],
		"dependency_cache" : [ 			{
				"name" : "sadam.udpReceiver.mxo",
				"type" : "iLaX"
			}
 ],
		"autosave" : 0
	}

}
